<?xml version="1.0" encoding="UTF-8" standalone="no"?>
<svg
   xmlns:dc="http://purl.org/dc/elements/1.1/"
   xmlns:cc="http://creativecommons.org/ns#"
   xmlns:rdf="http://www.w3.org/1999/02/22-rdf-syntax-ns#"
   xmlns:svg="http://www.w3.org/2000/svg"
   xmlns="http://www.w3.org/2000/svg"
   xmlns:sodipodi="http://sodipodi.sourceforge.net/DTD/sodipodi-0.dtd"
   xmlns:inkscape="http://www.inkscape.org/namespaces/inkscape"
   t="1554628809784"
   class="icon"
   viewBox="0 0 8192 8192"
   version="1.1"
   p-id="20624"
   width="256"
   height="256"
   id="svg8"
   sodipodi:docname="master.svg"
   inkscape:version="0.92.3 (2405546, 2018-03-11)"
   inkscape:export-filename="/home/lolimay/Desktop/xasxsxsa.png"
   inkscape:export-xdpi="96"
   inkscape:export-ydpi="96">
  <metadata
     id="metadata12">
    <rdf:RDF>
      <cc:Work
         rdf:about="">
        <dc:format>image/svg+xml</dc:format>
        <dc:type
           rdf:resource="http://purl.org/dc/dcmitype/StillImage" />
        <dc:title></dc:title>
      </cc:Work>
    </rdf:RDF>
  </metadata>
  <sodipodi:namedview
     pagecolor="#ffffff"
     bordercolor="#666666"
     borderopacity="1"
     objecttolerance="10"
     gridtolerance="10"
     guidetolerance="10"
     inkscape:pageopacity="0"
     inkscape:pageshadow="2"
     inkscape:window-width="1920"
     inkscape:window-height="999"
     id="namedview10"
     showgrid="false"
     inkscape:zoom="0.921875"
     inkscape:cx="129.63756"
     inkscape:cy="216.3777"
     inkscape:window-x="1920"
     inkscape:window-y="0"
     inkscape:window-maximized="1"
     inkscape:current-layer="svg8" />
  <defs
     id="defs4">
    <style
       type="text/css"
       id="style2" />
  </defs>
  <path
     d="m 4018.5912,3997.9659 c 145.0926,82.8674 289.6973,166.1598 434.7898,249.0327 -593.9543,614.3306 -1257.7876,1141.9905 -2320.9928,1172.8611 68.4216,270.1702 273.6864,386.8666 540.5807,433.7961 283.3929,-30.865 532.8127,-112.4682 731.2853,-267.6363 -88.3163,176.3118 -200.8993,347.1194 -402.768,498.4844 76.1831,145.8664 304.2572,218.1678 635.689,240.1499 476.0366,-131.4911 870.5553,-350.5035 1218.9738,-618.5593 -157.2258,278.2021 -318.3292,553.8709 -604.1489,757.2383 95.5964,177.5761 337.7425,202.0977 646.3652,156.8576 663.8331,-538.6511 817.1751,-1188.5005 1102.0254,-1809.5995 169.7876,92.1596 339.4656,184.4725 509.0339,276.9386 -286.3011,621.9436 -520.6859,1225.283 -1067.0827,1783.808 -46.1001,47.3541 -224.678,121.7699 -628.897,132.3358 -1639.2035,-54.5419 -2446.1906,-466.3497 -3504.5423,-1560.5673 -131.5084,-212.6692 18.9254,-358.5356 166.4446,-420.2654 1209.2671,65.9582 2014.7968,-323.4424 2543.244,-1024.8747 z m 1536.8151,-1006.6845 752.6376,341.6263 C 6520.1007,2806.9426 6731.676,2280.5524 6943.7327,1754.1621 7088.3375,1414.23 6833.5763,1139.831 6657.4318,1347.8468 L 5555.4063,2991.2752 Z m -1345.6288,674.3711 2352.5395,895.4974 c 111.1256,-205.9064 147.0312,-406.7349 74.2442,-600.3804 -505.1566,-227.4696 -1010.313,-455.3592 -1515.4631,-683.2484 -165.9567,-27.9057 -332.4013,-33.8234 -498.3579,37.2077 -159.6526,81.6032 -296.0078,200.834 -412.9563,350.9293 z"
     p-id="20625"
     id="path6"
     inkscape:connector-curvature="0"
     style="fill:#50a7e4;fill-opacity:1;stroke-width:5.9926281"
     sodipodi:nodetypes="cccccccccccccccccccccccccccccc" />
  <path
     inkscape:connector-curvature="0"
     style="fill:#50a7e4;fill-opacity:1;stroke-width:5.9926281"
     d="m 2451.4439,3485.8686 c 0,18.4481 -17.334,33.5622 -38.5201,33.5622 h -429.0361 c -21.1859,0 -38.5199,-15.1141 -38.5199,-33.5622 v -373.8159 c 0,-18.4479 17.334,-33.5621 38.5199,-33.5621 h 429.0361 c 21.1861,0 38.5201,15.1142 38.5201,33.5621 z"
     p-id="28879"
     id="path24"
     sodipodi:nodetypes="sssssssss" />
  <path
     inkscape:connector-curvature="0"
     style="fill:#50a7e4;fill-opacity:1;stroke-width:5.9926281"
     d="m 2451.4439,3485.8686 c 0,18.4481 -17.334,33.5622 -38.5201,33.5622 h -429.0361 c -21.1859,0 -38.5199,-15.1141 -38.5199,-33.5622 v -373.8159 c 0,-18.4479 17.334,-33.5621 38.5199,-33.5621 h 429.0361 c 21.1861,0 38.5201,15.1142 38.5201,33.5621 z"
     p-id="28880"
     id="path26"
     sodipodi:nodetypes="sssssssss" />
  <path
     inkscape:connector-curvature="0"
     style="fill:#50a7e4;fill-opacity:1;stroke-width:5.9926281"
     d="m 2667.3871,4268.8191 c -15.0711,13.0407 -39.396,13.0407 -54.4672,0 L 2403.2939,4086.14 c -14.9671,-13.1312 -14.9671,-34.3258 0,-47.457 l 335.4196,-292.2597 c 15.0711,-13.0406 39.396,-13.0406 54.4673,0 l 209.6516,182.6791 c 14.9952,13.1212 14.9952,34.3353 0,47.457 z"
     p-id="28881"
     id="path28"
     sodipodi:nodetypes="ccccccccc" />
  <path
     inkscape:connector-curvature="0"
     style="fill:#50a7e4;fill-opacity:1;stroke-width:5.9926281"
     d="m 2667.3871,4268.8191 c -15.0711,13.0407 -39.396,13.0407 -54.4672,0 L 2403.2939,4086.14 c -14.9671,-13.1312 -14.9671,-34.3258 0,-47.457 l 335.4196,-292.2597 c 15.0711,-13.0406 39.396,-13.0406 54.4673,0 l 209.6516,182.6791 c 14.9952,13.1212 14.9952,34.3353 0,47.457 z"
     p-id="28882"
     id="path30"
     sodipodi:nodetypes="ccccccccc" />
  <path
     inkscape:connector-curvature="0"
     style="fill:#50a7e4;fill-opacity:1;stroke-width:5.9926281"
     d="m 1983.8877,3603.3364 h 429.0361 c 74.3565,0 134.8202,-52.6927 134.8202,-117.4678 v -373.8159 c 0,-64.775 -60.4637,-117.4677 -134.8202,-117.4677 h -429.0361 c -74.3565,0 -134.82,52.6927 -134.82,117.4677 v 373.8159 c 0,64.7751 60.4635,117.4678 134.82,117.4678 z m 57.7801,-440.9403 h 313.476 v 273.1293 h -313.476 z m 293.5098,983.0707 209.6774,182.7127 c 25.2365,22.0643 59.5472,34.4252 95.2985,34.3341 36.042,0 69.8625,-12.2054 95.3243,-34.3566 l 335.471,-292.2597 c 25.3388,-21.9943 39.532,-51.9033 39.4188,-83.0664 0,-31.4031 -13.9957,-60.8931 -39.4188,-83.0665 l -209.6774,-182.6791 c -25.2347,-22.0833 -59.559,-34.4544 -95.3242,-34.3565 -35.7762,-0.1007 -70.1113,12.2748 -95.35,34.3677 l -335.4453,292.282 c -52.4899,45.7902 -52.4899,120.2758 0,166.0883 z m 430.7696,-304.1184 127.9506,111.4825 -253.7443,221.0631 -127.925,-111.4825 z m 307.8777,-189.056 c 17.9937,-15.8038 28.1427,-37.1332 28.2608,-59.3939 0,-22.0392 -10.4138,-43.6308 -28.2608,-59.2932 -18.1106,-15.7127 -42.6098,-24.5586 -68.1676,-24.6123 -25.3077,0 -50.0761,8.9499 -68.0649,24.6123 -17.9646,15.7776 -28.1035,37.0689 -28.2352,59.2932 0.1136,22.2568 10.2531,43.585 28.2352,59.3939 18.1242,15.6272 42.5663,24.4294 68.0649,24.5116 25.5305,-0.073 50.0079,-8.8761 68.1676,-24.5116 z M 1937.484,3943.0531 c -18.0281,15.7407 -28.1783,37.0555 -28.2352,59.2932 0,22.1511 10.2592,43.7428 28.2352,59.4051 18.1286,15.6199 42.5688,24.4177 68.0649,24.5005 25.4232,0 50.2045,-8.9499 68.1933,-24.5005 18.0215,-15.7904 28.1674,-37.1365 28.2351,-59.4051 0,-22.0392 -10.2848,-43.6196 -28.2351,-59.2932 -17.9761,-15.6624 -42.7573,-24.6123 -68.1933,-24.6123 -25.3077,0 -50.0761,8.9387 -68.0649,24.6123 z m 803.1555,-665.203 c 25.3077,0 50.2044,-8.9499 68.0392,-24.5005 17.976,-15.6511 28.2608,-37.3659 28.2608,-59.4051 0,-22.0392 -10.2848,-43.6309 -28.2608,-59.2932 -18.0426,-15.7328 -42.513,-24.5849 -68.0392,-24.6123 -25.4232,0 -50.2045,8.95 -68.065,24.6123 -17.9759,15.5505 -28.2351,37.254 -28.2351,59.2932 0,22.0392 10.2592,43.7428 28.2351,59.4051 18.1038,15.653 42.5602,24.4563 68.065,24.5005 z"
     p-id="28890"
     id="path46"
     sodipodi:nodetypes="ssssssssscccccccccccccccccccccccccccccccccccccccscccscccscc" />
</svg>
