<?xml version="1.0" encoding="UTF-8" standalone="no"?>
<svg
   xmlns:dc="http://purl.org/dc/elements/1.1/"
   xmlns:cc="http://creativecommons.org/ns#"
   xmlns:rdf="http://www.w3.org/1999/02/22-rdf-syntax-ns#"
   xmlns:svg="http://www.w3.org/2000/svg"
   xmlns="http://www.w3.org/2000/svg"
   xmlns:sodipodi="http://sodipodi.sourceforge.net/DTD/sodipodi-0.dtd"
   xmlns:inkscape="http://www.inkscape.org/namespaces/inkscape"
   t="1554628809784"
   class="icon"
   style=""
   viewBox="0 0 1031 1024"
   version="1.1"
   p-id="20624"
   width="32.21875"
   height="32"
   id="svg8"
   sodipodi:docname="clean.svg"
   inkscape:version="0.92.3 (2405546, 2018-03-11)">
  <metadata
     id="metadata12">
    <rdf:RDF>
      <cc:Work
         rdf:about="">
        <dc:format>image/svg+xml</dc:format>
        <dc:type
           rdf:resource="http://purl.org/dc/dcmitype/StillImage" />
      </cc:Work>
    </rdf:RDF>
  </metadata>
  <sodipodi:namedview
     pagecolor="#ffffff"
     bordercolor="#666666"
     borderopacity="1"
     objecttolerance="10"
     gridtolerance="10"
     guidetolerance="10"
     inkscape:pageopacity="0"
     inkscape:pageshadow="2"
     inkscape:window-width="1920"
     inkscape:window-height="1040"
     id="namedview10"
     showgrid="false"
     inkscape:zoom="7.375"
     inkscape:cx="40.622653"
     inkscape:cy="9.1540195"
     inkscape:window-x="0"
     inkscape:window-y="0"
     inkscape:window-maximized="1"
     inkscape:current-layer="svg8" />
  <defs
     id="defs4">
    <style
       type="text/css"
       id="style2" />
  </defs>
  <path
     d="m 569.46246,486.66221 c 22.60007,14.81439 45.12414,29.70477 67.72421,44.52016 -92.51618,109.82546 -195.91691,204.15656 -361.52506,209.67533 10.65756,48.29901 42.63023,69.16114 84.20252,77.5508 44.14217,-5.51778 82.99257,-20.10617 113.90729,-47.84603 -13.75643,31.5197 -31.29271,62.05544 -62.73641,89.11532 11.86651,26.07692 47.39204,39.00239 99.01691,42.93223 74.14894,-23.50703 135.6004,-62.66041 189.87115,-110.58143 -24.48999,49.73494 -49.58395,99.01691 -94.10411,135.3734 14.89039,31.74569 52.60783,36.12951 100.67984,28.04184 103.40073,-96.29602 127.28574,-212.47122 171.65491,-323.50663 26.44664,16.47564 52.87622,32.97864 79.28872,49.50896 -44.59516,111.1864 -81.10365,219.04694 -166.21213,318.89584 -7.1807,8.4656 -34.99655,21.7691 -97.95895,23.658 -255.32745,-9.7506 -381.02626,-83.37055 -545.87844,-278.98647 -20.48415,-38.01943 2.94788,-64.09635 25.92593,-75.13189 188.35921,11.79151 313.83103,-57.82261 396.14362,-183.21943 z M 808.84157,306.69465 926.07473,367.76812 C 959.10536,273.74001 992.061,179.6359 1025.0916,85.531785 1047.6157,24.761297 1007.9333,-24.293676 980.49648,12.893787 L 808.84157,306.69365 Z M 599.24223,427.25366 965.68109,587.34405 c 17.30929,-36.81048 22.90205,-72.713 11.56452,-107.33157 -78.68475,-40.66532 -157.36949,-81.40563 -236.05324,-122.14595 -25.84993,-4.98879 -51.77586,-6.04675 -77.62579,6.65172 -24.86798,14.5884 -46.1071,35.90352 -64.32335,62.73641 z"
     p-id="20625"
     id="path6"
     inkscape:connector-curvature="0"
     style="fill:#50a7e4;fill-opacity:1"
     sodipodi:nodetypes="cccccccccccccccccccccccccccccc" />
  <path
     inkscape:connector-curvature="0"
     style="fill:#50a7e4;stroke-width:1;fill-opacity:1"
     d="m 325.35871,395.11328 c 0,3.298 -2.7,6 -6,6 h -66.828 c -3.3,0 -6,-2.70199 -6,-6 v -66.828 c 0,-3.298 2.7,-6 6,-6 h 66.828 c 3.3,0 6,2.702 6,6 z"
     p-id="28879"
     id="path24"
     sodipodi:nodetypes="sssssssss" />
  <path
     inkscape:connector-curvature="0"
     style="fill:#50a7e4;stroke-width:1;fill-opacity:1"
     d="m 325.35871,395.11328 c 0,3.298 -2.7,6 -6,6 h -66.828 c -3.3,0 -6,-2.70199 -6,-6 v -66.828 c 0,-3.298 2.7,-6 6,-6 h 66.828 c 3.3,0 6,2.702 6,6 z"
     p-id="28880"
     id="path26"
     sodipodi:nodetypes="sssssssss" />
  <path
     inkscape:connector-curvature="0"
     style="fill:#50a7e4;stroke-width:1;fill-opacity:1"
     d="m 358.99471,535.08328 c -2.34754,2.33132 -6.13647,2.33132 -8.484,0 l -32.652,-32.658 c -2.33132,-2.34753 -2.33132,-6.13646 0,-8.484 l 52.246,-52.248 c 2.34753,-2.33131 6.13646,-2.33131 8.484,0 l 32.656,32.658 c 2.33569,2.34573 2.33569,6.13827 0,8.484 z"
     p-id="28881"
     id="path28"
     sodipodi:nodetypes="ccccccccc" />
  <path
     inkscape:connector-curvature="0"
     style="fill:#50a7e4;stroke-width:1;fill-opacity:1"
     d="m 358.99471,535.08328 c -2.34754,2.33132 -6.13647,2.33132 -8.484,0 l -32.652,-32.658 c -2.33132,-2.34753 -2.33132,-6.13646 0,-8.484 l 52.246,-52.248 c 2.34753,-2.33131 6.13646,-2.33131 8.484,0 l 32.656,32.658 c 2.33569,2.34573 2.33569,6.13827 0,8.484 z"
     p-id="28882"
     id="path30"
     sodipodi:nodetypes="ccccccccc" />
  <path
     inkscape:connector-curvature="0"
     style="fill:#50a7e4;stroke-width:1;fill-opacity:1"
     d="m 252.53071,416.11328 h 66.828 c 11.582,0 21,-9.42 21,-21 v -66.828 c 0,-11.58 -9.418,-21 -21,-21 h -66.828 c -11.582,0 -21,9.42 -21,21 v 66.828 c 0,11.58 9.418,21 21,21 z m 9,-78.828 h 48.828 v 48.828 h -48.828 z m 45.718,175.746 32.66,32.664 c 3.93093,3.94448 9.27525,6.15436 14.844,6.138 5.614,0 10.882,-2.18198 14.848,-6.142 l 52.254,-52.248 c 3.94688,-3.93194 6.15765,-9.27885 6.14,-14.85 0,-5.614 -2.18,-10.886 -6.14,-14.85 l -32.66,-32.658 c -3.93062,-3.94788 -9.27708,-6.15948 -14.848,-6.142 -5.5726,-0.018 -10.92074,2.1944 -14.852,6.144 l -52.25,52.252 c -8.176,8.186 -8.176,21.502 0,29.692 z m 67.098,-54.368 19.93,19.93 -39.524,39.52 -19.926,-19.93 z m 47.956,-33.798 c 2.80276,-2.82525 4.38361,-6.6384 4.402,-10.618 0,-3.94 -1.6221,-7.8 -4.402,-10.6 -2.82095,-2.80899 -6.63704,-4.39034 -10.618,-4.4 -3.942,0 -7.8,1.6 -10.602,4.4 -2.79823,2.82062 -4.37748,6.62691 -4.398,10.6 0.0177,3.97895 1.59706,7.79186 4.398,10.618 2.82308,2.79375 6.63026,4.36733 10.602,4.382 3.97672,-0.0133 7.78939,-1.58674 10.618,-4.382 z m -177,51.98 c -2.80812,2.81402 -4.38913,6.62456 -4.398,10.6 0,3.96 1.598,7.82 4.398,10.62 2.82377,2.79247 6.63067,4.36522 10.602,4.38 3.96,0 7.82,-1.6 10.622,-4.38 2.80709,-2.82286 4.38745,-6.63902 4.398,-10.62 0,-3.94 -1.602,-7.798 -4.398,-10.6 -2.8,-2.8 -6.66,-4.4 -10.622,-4.4 -3.942,0 -7.8,1.59802 -10.602,4.4 z m 125.102,-118.92 c 3.942,0 7.82,-1.6 10.598,-4.38 2.8,-2.798 4.402,-6.68 4.402,-10.62 0,-3.94 -1.602,-7.8 -4.402,-10.6 -2.81036,-2.81262 -6.62197,-4.39509 -10.598,-4.4 -3.96,0 -7.82,1.6 -10.602,4.4 -2.8,2.78 -4.398,6.66 -4.398,10.6 0,3.94 1.598,7.82 4.398,10.62 2.81989,2.79832 6.6293,4.3721 10.602,4.38 z"
     p-id="28890"
     id="path46"
     sodipodi:nodetypes="ssssssssscccccccccccccccccccccccccccccccccccccccscccscccscc" />
</svg>
